# xmcd
#
# Track frame offsets: 
#        150
#        15593
#        29184
#        43762
#        57350
#        71985
#        81834
#        95184
#        108744
#        118048
#        131585
#        146696
#        161279
#        175391
#
# Disc length: 2513 seconds
#
# Revision: 0
# Processed by: cddbd v1.5.2PL0 Copyright (c) Steve Scherf et al.
# Submitted via: ExactAudioCopy v1.0b1
#
DISCID=d309cf0e
DTITLE=Juke Joint Pimps - The Gospel Pimps
DYEAR=1900
DGENRE=Blues
TTITLE0=Eat For Me
TTITLE1=Delta Trip
TTITLE2=I Need My Baby
TTITLE3=Boogie 65
TTITLE4=Sweetest Hymns
TTITLE5=Old School Boogie
TTITLE6=Blues Power
TTITLE7=I Feel Guilty
TTITLE8=Juke Joint In The Sky
TTITLE9=Boogie The Church Down
TTITLE10=Keep Your Arms Around Me
TTITLE11=King Roland's Prayer
TTITLE12=Feeling Lonely
TTITLE13=The Pimps Don't Like It
EXTD=
EXTT0=
EXTT1=
EXTT2=
EXTT3=
EXTT4=
EXTT5=
EXTT6=
EXTT7=
EXTT8=
EXTT9=
EXTT10=
EXTT11=
EXTT12=
EXTT13=
PLAYORDER=
